<?xml version="1.0" encoding="UTF-8" standalone="no"?>
<svg
   xmlns:dc="http://purl.org/dc/elements/1.1/"
   xmlns:cc="http://creativecommons.org/ns#"
   xmlns:rdf="http://www.w3.org/1999/02/22-rdf-syntax-ns#"
   xmlns:svg="http://www.w3.org/2000/svg"
   xmlns="http://www.w3.org/2000/svg"
   viewBox="0 0 692 469.33334"
   height="469.33334"
   width="692"
   xml:space="preserve"
   id="svg2"
   version="1.1"><metadata
     id="metadata8"><rdf:RDF><cc:Work
         rdf:about=""><dc:format>image/svg+xml</dc:format><dc:type
           rdf:resource="http://purl.org/dc/dcmitype/StillImage" /></cc:Work></rdf:RDF></metadata><defs
     id="defs6"><clipPath
       id="clipPath42"
       clipPathUnits="userSpaceOnUse"><path
         style="clip-rule:evenodd"
         id="path40"
         d="m 320,217 c 0,-37.55536 -35.59335,-68 -79.5,-68 -43.90665,0 -79.5,30.44464 -79.5,68 0,37.55536 35.59335,68 79.5,68 43.90665,0 79.5,-30.44464 79.5,-68 z" /></clipPath><clipPath
       id="clipPath58"
       clipPathUnits="userSpaceOnUse"><path
         style="clip-rule:evenodd"
         id="path56"
         d="m 207,169.5 c 0,-29.54724 -29.1015,-53.5 -65,-53.5 -35.89851,0 -65,23.95276 -65,53.5 0,29.54724 29.10149,53.5 65,53.5 35.8985,0 65,-23.95276 65,-53.5 z" /></clipPath><clipPath
       id="clipPath74"
       clipPathUnits="userSpaceOnUse"><path
         style="clip-rule:evenodd"
         id="path72"
         d="m 370,158 c 0,-23.19595 -22.1619,-42 -49.5,-42 -27.3381,0 -49.5,18.80405 -49.5,42 0,23.19595 22.1619,42 49.5,42 27.3381,0 49.5,-18.80405 49.5,-42 z" /></clipPath><clipPath
       id="clipPath150"
       clipPathUnits="userSpaceOnUse"><path
         style="clip-rule:evenodd"
         id="path148"
         d="M 209,166.5 C 209,135.29591 178.77922,110 141.5,110 104.22078,110 74,135.29591 74,166.5 c 0,31.20409 30.22078,56.5 67.5,56.5 37.27922,0 67.5,-25.29591 67.5,-56.5 z" /></clipPath></defs><g
     transform="matrix(1.3333333,0,0,-1.3333333,0,469.33333)"
     id="g10"><g
       id="g12"><path
         id="path14"
         style="fill:#ffffff;fill-opacity:1;fill-rule:nonzero;stroke:none"
         d="M 0,352 H 519 V 0 H 0 Z" /></g><g
       transform="translate(320,173)"
       id="g16"><path
         id="path18"
         style="fill:#f9f0f0;fill-opacity:1;fill-rule:nonzero;stroke:none"
         d="M 0,1 H 20 V 2 H 0 Z" /></g><g
       transform="rotate(90,91,180)"
       id="g20"><path
         id="path22"
         style="fill:#faf9f9;fill-opacity:1;fill-rule:nonzero;stroke:none"
         d="m 0,14 h 14 v 1 H 0 Z" /></g><g
       transform="matrix(0.999997,0.002308,0.002308,-0.999997,119.99074,318.50943)"
       id="g24"><path
         id="path26"
         style="fill:#d9d9d9;fill-opacity:1;fill-rule:nonzero;stroke:none"
         d="M 0.009223,0.009452 4.102543,10.518921 0,4.009444 Z" /></g><g
       transform="rotate(90,16.5,178.5)"
       id="g28"><path
         id="path30"
         style="fill:#000000;fill-opacity:1;fill-rule:nonzero;stroke:none"
         d="M 0,1 H 1 V 2 H 0 Z" /></g><g
       id="g32"><g
         transform="translate(161,149)"
         id="g34"><path
           id="path36"
           style="fill:#ffffff;fill-opacity:1;fill-rule:nonzero;stroke:none"
           d="M 159,68 C 159,30.444633 123.40664,0 79.5,0 35.593361,0 0,30.444633 0,68 c 0,37.55536 35.593361,68 79.5,68 43.90664,0 79.5,-30.44464 79.5,-68 z" /></g><g
         clip-path="url(#clipPath42)"
         id="g38"><g
           transform="translate(161,149)"
           id="g44"><path
             id="path46"
             style="fill:#000000;fill-opacity:1;fill-rule:nonzero;stroke:none"
             d="M 149,68 C 149,37.376129 119.40653,10 79.5,10 v -20 c 47.90674,0 89.5,33.513145 89.5,78 z M 79.5,10 C 39.593464,10 10,37.376129 10,68 h -20 c 0,-44.486855 41.59326,-78 89.5,-78 z M 10,68 c 0,30.623871 29.593464,58 69.5,58 v 20 C 31.59326,146 -10,112.48686 -10,68 Z m 69.5,58 C 119.40653,126 149,98.623871 149,68 h 20 c 0,44.48686 -41.59326,78 -89.5,78 z" /></g></g></g><g
       id="g48"><g
         transform="translate(77,116)"
         id="g50"><path
           id="path52"
           style="fill:#ffffff;fill-opacity:1;fill-rule:nonzero;stroke:none"
           d="M 130,53.5 C 130,23.952766 100.89851,0 65,0 29.101492,0 0,23.952766 0,53.5 0,83.047234 29.101492,107 65,107 c 35.89851,0 65,-23.952766 65,-53.5 z" /></g><g
         clip-path="url(#clipPath58)"
         id="g54"><g
           transform="translate(77,116)"
           id="g60"><path
             id="path62"
             style="fill:#000000;fill-opacity:1;fill-rule:nonzero;stroke:none"
             d="M 120,53.5 C 120,31.208809 97.285202,10 65,10 v -20 c 39.51182,0 75,26.696724 75,63.5 z M 65,10 C 32.714798,10 10,31.208809 10,53.5 H -10 C -10,16.696724 25.488184,-10 65,-10 Z M 10,53.5 C 10,75.791191 32.714798,97 65,97 v 20 C 25.488184,117 -10,90.303276 -10,53.5 Z M 65,97 c 32.285202,0 55,-21.208809 55,-43.5 h 20 C 140,90.303276 104.51182,117 65,117 Z" /></g></g></g><g
       id="g64"><g
         transform="translate(271,116)"
         id="g66"><path
           id="path68"
           style="fill:#ffffff;fill-opacity:1;fill-rule:nonzero;stroke:none"
           d="M 99,42 C 99,18.804039 76.838097,0 49.5,0 22.161905,0 0,18.804039 0,42 0,65.195961 22.161905,84 49.5,84 76.838097,84 99,65.195961 99,42 Z" /></g><g
         clip-path="url(#clipPath74)"
         id="g70"><g
           transform="translate(271,116)"
           id="g76"><path
             id="path78"
             style="fill:#000000;fill-opacity:1;fill-rule:nonzero;stroke:none"
             d="M 89,42 C 89,25.804283 72.918694,10 49.5,10 V -10 C 80.757492,-10 109,11.803795 109,42 Z M 49.5,10 C 26.081303,10 10,25.804283 10,42 h -20 c 0,-30.196205 28.242506,-52 59.5,-52 z M 10,42 c 0,16.195717 16.081303,32 39.5,32 V 94 C 18.242506,94 -10,72.196205 -10,42 Z M 49.5,74 C 72.918694,74 89,58.195717 89,42 h 20 c 0,30.196205 -28.242508,52 -59.5,52 z" /></g></g></g><g
       transform="translate(129,110)"
       id="g80"><path
         id="path82"
         style="fill:#000000;fill-opacity:1;fill-rule:nonzero;stroke:none"
         d="m 0,8 h 205.00001 v 8 H 0 Z" /></g><g
       transform="translate(166,102)"
       id="g84"><path
         id="path86"
         style="fill:#ffffff;fill-opacity:1;fill-rule:nonzero;stroke:none"
         d="m 0,50 h 86 v 50 H 0 Z" /></g><g
       transform="translate(206,65)"
       id="g88"><path
         id="path90"
         style="fill:#ffffff;fill-opacity:1;fill-rule:nonzero;stroke:none"
         d="m 0,80 h 86 v 80 H 0 Z" /></g><g
       transform="translate(266,126.0425)"
       id="g92"><path
         id="path94"
         style="fill:#fffdfd;fill-opacity:1;fill-rule:nonzero;stroke:none"
         d="M 24,19.957504 44.784607,4e-6 H 3.215391 Z" /></g><g
       transform="translate(306,126.02499)"
       id="g96"><path
         id="path98"
         style="fill:#ffffff;fill-opacity:1;fill-rule:nonzero;stroke:none"
         d="M 6,3.975006 11.196152,6e-6 H 0.803848 Z" /></g><g
       transform="translate(257,134.5)"
       id="g100"><path
         id="path102"
         style="fill:#ffffff;fill-opacity:1;fill-rule:nonzero;stroke:none"
         d="M 25.5,22.5 47.583649,0 H 3.416351 Z" /></g><g
       transform="translate(317,125)"
       id="g104"><path
         id="path106"
         style="fill:#ffffff;fill-opacity:1;fill-rule:nonzero;stroke:none"
         d="M 0,1 H 1 V 2 H 0 Z" /></g><g
       transform="translate(304,116)"
       id="g108"><path
         id="path110"
         style="fill:#ffffff;fill-opacity:1;fill-rule:nonzero;stroke:none"
         d="M 0,1 H 37 V 2 H 0 Z" /></g><g
       transform="rotate(-180,166,59)"
       id="g112"><path
         id="path114"
         style="fill:#ffffff;fill-opacity:1;fill-rule:nonzero;stroke:none"
         d="M 0,1 H 25 V 2 H 0 Z" /></g><g
       transform="translate(145,126)"
       id="g116"><path
         id="path118"
         style="fill:#ffffff;fill-opacity:1;fill-rule:nonzero;stroke:none"
         d="M 30.5,36 56.913773,0 H 4.086226 Z" /></g><g
       transform="translate(176,135.5)"
       id="g120"><path
         id="path122"
         style="fill:#ffffff;fill-opacity:1;fill-rule:nonzero;stroke:none"
         d="M 25,31.5 46.650635,0 H 3.349365 Z" /></g><g
       transform="rotate(-180,76,64)"
       id="g124"><path
         id="path126"
         style="fill:#fff9f9;fill-opacity:1;fill-rule:nonzero;stroke:none"
         d="M 0,1 H 7 V 2 H 0 Z" /></g><g
       transform="rotate(-180,80.5,59.5)"
       id="g128"><path
         id="path130"
         style="fill:#ffffff;fill-opacity:1;fill-rule:nonzero;stroke:none"
         d="M 0,1 H 43 V 2 H 0 Z" /></g><g
       transform="rotate(-180,77,59)"
       id="g132"><path
         id="path134"
         style="fill:#ffffff;fill-opacity:1;fill-rule:nonzero;stroke:none"
         d="M 0,1 H 27 V 2 H 0 Z" /></g><g
       transform="rotate(-180,78,59)"
       id="g136"><path
         id="path138"
         style="fill:#ffffff;fill-opacity:1;fill-rule:nonzero;stroke:none"
         d="M 0,1 H 3 V 2 H 0 Z" /></g><g
       id="g140"><g
         transform="translate(74,110)"
         id="g142"><path
           id="path144"
           style="fill:#ffffff;fill-opacity:1;fill-rule:nonzero;stroke:none"
           d="M 135,56.5 C 135,25.295914 104.77922,0 67.5,0 30.220779,0 0,25.295914 0,56.5 0,87.704086 30.220779,113 67.5,113 104.77922,113 135,87.704086 135,56.5 Z" /></g><g
         clip-path="url(#clipPath150)"
         id="g146"><g
           transform="translate(74,110)"
           id="g152"><path
             id="path154"
             style="fill:#ffffff;fill-opacity:1;fill-rule:nonzero;stroke:none"
             d="M 134,56.5 C 134,26.007439 104.40093,1 67.5,1 V -1 C 105.15751,-1 136,24.584381 136,56.5 Z M 67.5,1 C 30.59907,1 1,26.007439 1,56.5 H -1 C -1,24.584381 29.842489,-1 67.5,-1 Z M 1,56.5 C 1,86.992561 30.59907,112 67.5,112 v 2 C 29.842489,114 -1,88.415619 -1,56.5 Z M 67.5,112 C 104.40093,112 134,86.992561 134,56.5 h 2 C 136,88.415619 105.15751,114 67.5,114 Z" /></g></g></g><g
       transform="rotate(-180,95.5,65)"
       id="g156"><path
         id="path158"
         style="fill:#000000;fill-opacity:1;fill-rule:nonzero;stroke:none"
         d="M 0,12 C -2.209139,12 -4,10.209139 -4,8 -4,5.790861 -2.209139,4 0,4 Z M 114.00001,4 c 2.20914,0 4,1.790861 4,4 0,2.209139 -1.79086,4 -4,4 z M 0,4 h 114.00001 v 8 H 0 Z" /></g><g
       transform="rotate(-180,100.5,82.5)"
       id="g160"><path
         id="path162"
         style="fill:#000000;fill-opacity:1;fill-rule:nonzero;stroke:none"
         d="M 0,12 C -2.209139,12 -4,10.209139 -4,8 -4,5.790861 -2.209139,4 0,4 Z M 124,4 c 2.20915,0 4,1.790861 4,4 0,2.209139 -1.79085,4 -4,4 z M 0,4 h 124 v 8 H 0 Z" /></g><g
       transform="rotate(180,92,99.5)"
       id="g164"><path
         id="path166"
         style="fill:#000000;fill-opacity:1;fill-rule:nonzero;stroke:none"
         d="M 0,12 C -2.209139,12 -4,10.209139 -4,8 -4,5.790861 -2.209139,4 0,4 Z M 105.00001,4 c 2.20914,0 4,1.790861 4,4 0,2.209139 -1.79086,4 -4,4 z M 0,4 h 105.00001 v 8 H 0 Z" /></g><g
       transform="rotate(-26.565077,534.74637,-251.23624)"
       id="g168"><path
         id="path170"
         style="fill:#ffffff;fill-opacity:1;fill-rule:nonzero;stroke:none"
         d="m 0,4.894424 h 8.944272 v 1 H 0 Z" /></g><g
       transform="rotate(-90,194,24)"
       id="g172"><path
         id="path174"
         style="fill:#fffdfd;fill-opacity:1;fill-rule:nonzero;stroke:none"
         d="M 0,1 H 1 V 2 H 0 Z" /></g><g
       transform="rotate(173.65978,74.462809,116.45544)"
       id="g176"><path
         id="path178"
         style="fill:#ffffff;fill-opacity:1;fill-rule:nonzero;stroke:none"
         d="m 0,2.993881 h 18.110771 v 1 H 0 Z" /></g><g
       transform="rotate(173.29018,73.580756,117.18625)"
       id="g180"><path
         id="path182"
         style="fill:#ffffff;fill-opacity:1;fill-rule:nonzero;stroke:none"
         d="m 0,2.993149 h 17.117243 v 1 H 0 Z" /></g><g
       transform="rotate(-180,71.5,112)"
       id="g184"><path
         id="path186"
         style="fill:#ffffff;fill-opacity:1;fill-rule:nonzero;stroke:none"
         d="M 0,1 H 1 V 2 H 0 Z" /></g><g
       transform="rotate(87.601471,-34.241888,193.92946)"
       id="g188"><path
         id="path190"
         style="fill:#ffffff;fill-opacity:1;fill-rule:nonzero;stroke:none"
         d="m 0.49633,0.902863 0.429833,-1.05 H 0.066496 Z" /></g></g></svg>