<svg width="519" height="352" viewBox="0 0 519 352" fill="none" xmlns="http://www.w3.org/2000/svg">
<rect width="519" height="352" fill="white"/>
<rect x="124.5" y="48.5" width="269" height="269" fill="white" stroke="#FBFBFB"/>
<line x1="123.354" y1="43.6464" x2="390.354" y2="310.646" stroke="#FFFDFD"/>
<line x1="389.356" y1="42.3516" x2="123.356" y2="311.352" stroke="#FFFBFB"/>
<line x1="256.5" y1="42" x2="256.5" y2="311" stroke="#FFFAFA"/>
<line x1="120" y1="177.5" x2="394" y2="177.5" stroke="black"/>
<circle cx="255" cy="178" r="84.5" fill="white" stroke="#FEF8F8"/>
<circle cx="255" cy="178" r="58" fill="#FCF6F6" stroke="black" stroke-width="14"/>
<line x1="257" y1="51" x2="257" y2="92" stroke="black" stroke-width="14" stroke-linecap="round"/>
<line x1="320" y1="177.5" x2="340" y2="177.5" stroke="#F9F0F0"/>
<line x1="190" y1="177.5" x2="170" y2="177.5" stroke="#FAF1F1"/>
<line x1="257.5" y1="100" x2="257.5" y2="113" stroke="#FDF7F7"/>
<line x1="256.5" y1="263" x2="256.5" y2="249" stroke="#FAF9F9"/>
<path d="M364.413 81L322 117.567" stroke="black" stroke-width="14" stroke-linecap="round"/>
<path d="M394 178H343" stroke="black" stroke-width="14" stroke-linecap="round"/>
<path d="M320.268 242.746L355.108 279.99" stroke="white" stroke-width="14" stroke-linecap="round"/>
<line x1="254" y1="270" x2="254" y2="311" stroke="white" stroke-width="14" stroke-linecap="round"/>
<path d="M116 178L167 178" stroke="black" stroke-width="14" stroke-linecap="round"/>
<line x1="150.894" y1="84.3301" x2="183.907" y2="119.622" stroke="black" stroke-width="14" stroke-linecap="round"/>
<path d="M120 33.5L124.118 44L120 37.5L120 33.5Z" fill="#D9D9D9"/>
<line x1="195.118" y1="181.001" x2="314.118" y2="183.001" stroke="black" stroke-width="14"/>
<ellipse cx="259" cy="224.5" rx="82" ry="34.5" fill="white"/>
<rect x="124" y="188" width="96" height="101" rx="5" fill="#FDFDFD"/>
<rect x="184" y="188" width="171" height="38" fill="white"/>
<path d="M318.25 18C318.25 15.6528 316.347 13.75 314 13.75C311.653 13.75 309.75 15.6528 309.75 18L318.25 18ZM310.995 73.0052C312.655 74.6649 315.345 74.6649 317.005 73.0052L344.052 45.9584C345.712 44.2986 345.712 41.6077 344.052 39.948C342.392 38.2882 339.701 38.2882 338.042 39.948L314 63.9896L289.958 39.948C288.299 38.2882 285.608 38.2882 283.948 39.948C282.288 41.6077 282.288 44.2986 283.948 45.9584L310.995 73.0052ZM309.75 18L309.75 70L318.25 70L318.25 18L309.75 18Z" fill="black"/>
</svg>
