<svg width="519" height="352" viewBox="0 0 519 352" fill="none" xmlns="http://www.w3.org/2000/svg">
<g clip-path="url(#clip0_6_133)">
<rect width="519" height="352" fill="white"/>
<line x1="320" y1="177.5" x2="340" y2="177.5" stroke="#F9F0F0"/>
<line x1="256.5" y1="263" x2="256.5" y2="249" stroke="#FAF9F9"/>
<path d="M120 33.5L124.118 44L120 37.5L120 33.5Z" fill="#D9D9D9"/>
<rect x="154" y="68" width="249" height="239" rx="25" fill="black" stroke="black" stroke-width="10"/>
<path d="M222.04 267V174.273H236.287V267H222.04ZM229.284 158.818C226.507 158.818 224.112 157.872 222.1 155.981C220.128 154.089 219.142 151.815 219.142 149.159C219.142 146.503 220.128 144.229 222.1 142.337C224.112 140.446 226.507 139.5 229.284 139.5C232.061 139.5 234.436 140.446 236.408 142.337C238.42 144.229 239.426 146.503 239.426 149.159C239.426 151.815 238.42 154.089 236.408 155.981C234.436 157.872 232.061 158.818 229.284 158.818ZM276.629 211.219V267H262.382V174.273H276.146V188.761H277.353C279.526 184.053 282.827 180.269 287.254 177.412C291.681 174.514 297.396 173.065 304.399 173.065C310.677 173.065 316.171 174.353 320.879 176.929C325.588 179.464 329.251 183.328 331.867 188.52C334.483 193.671 335.791 200.191 335.791 208.08V267H321.544V209.045C321.544 201.761 319.652 196.086 315.869 192.021C312.086 187.916 306.894 185.864 300.294 185.864C295.746 185.864 291.681 186.85 288.099 188.822C284.557 190.794 281.76 193.671 279.708 197.455C277.655 201.238 276.629 205.826 276.629 211.219Z" fill="white"/>
<path d="M222.04 267H218.04V271H222.04V267ZM222.04 174.273V170.273H218.04V174.273H222.04ZM236.287 174.273H240.287V170.273H236.287V174.273ZM236.287 267V271H240.287V267H236.287ZM222.1 155.981L219.331 158.868L219.346 158.882L219.36 158.895L222.1 155.981ZM222.1 142.337L219.361 139.423L219.346 139.437L219.331 139.451L222.1 142.337ZM236.408 142.337L233.639 145.224L233.653 145.238L233.668 145.252L236.408 142.337ZM236.408 155.981L233.668 153.066L233.653 153.08L233.639 153.094L236.408 155.981ZM226.04 267V174.273H218.04V267H226.04ZM222.04 178.273H236.287V170.273H222.04V178.273ZM232.287 174.273V267H240.287V174.273H232.287ZM236.287 263H222.04V271H236.287V263ZM229.284 154.818C227.519 154.818 226.106 154.256 224.84 153.066L219.36 158.895C222.119 161.488 225.495 162.818 229.284 162.818V154.818ZM224.869 153.094C223.658 151.932 223.142 150.691 223.142 149.159H215.142C215.142 152.94 216.598 156.246 219.331 158.868L224.869 153.094ZM223.142 149.159C223.142 147.627 223.658 146.386 224.869 145.224L219.331 139.451C216.598 142.072 215.142 145.378 215.142 149.159H223.142ZM224.84 145.252C226.106 144.062 227.519 143.5 229.284 143.5V135.5C225.495 135.5 222.119 136.83 219.361 139.423L224.84 145.252ZM229.284 143.5C231.048 143.5 232.425 144.06 233.639 145.224L239.177 139.451C236.446 136.832 233.074 135.5 229.284 135.5V143.5ZM233.668 145.252C234.912 146.421 235.426 147.655 235.426 149.159H243.426C243.426 145.351 241.928 142.037 239.147 139.423L233.668 145.252ZM235.426 149.159C235.426 150.663 234.912 151.897 233.668 153.066L239.147 158.895C241.928 156.282 243.426 152.968 243.426 149.159H235.426ZM233.639 153.094C232.425 154.258 231.048 154.818 229.284 154.818V162.818C233.074 162.818 236.446 161.486 239.177 158.868L233.639 153.094ZM276.629 267V271H280.629V267H276.629ZM262.382 267H258.382V271H262.382V267ZM262.382 174.273V170.273H258.382V174.273H262.382ZM276.146 174.273H280.146V170.273H276.146V174.273ZM276.146 188.761H272.146V192.761H276.146V188.761ZM277.353 188.761V192.761H279.912L280.985 190.438L277.353 188.761ZM287.254 177.412L289.423 180.773L289.434 180.766L289.444 180.759L287.254 177.412ZM320.879 176.929L318.96 180.438L318.971 180.445L318.983 180.451L320.879 176.929ZM331.867 188.52L328.294 190.32L328.3 190.331L331.867 188.52ZM335.791 267V271H339.791V267H335.791ZM321.544 267H317.544V271H321.544V267ZM315.869 192.021L312.927 194.732L312.934 194.739L312.941 194.746L315.869 192.021ZM288.099 188.822L286.17 185.318L286.161 185.322L286.153 185.327L288.099 188.822ZM279.708 197.455L276.192 195.547L276.192 195.547L279.708 197.455ZM272.629 211.219V267H280.629V211.219H272.629ZM276.629 263H262.382V271H276.629V263ZM266.382 267V174.273H258.382V267H266.382ZM262.382 178.273H276.146V170.273H262.382V178.273ZM272.146 174.273V188.761H280.146V174.273H272.146ZM276.146 192.761H277.353V184.761H276.146V192.761ZM280.985 190.438C282.835 186.429 285.622 183.226 289.423 180.773L285.085 174.051C280.031 177.313 276.218 181.676 273.721 187.085L280.985 190.438ZM289.444 180.759C293.041 178.405 297.927 177.065 304.399 177.065V169.065C296.864 169.065 290.321 170.624 285.063 174.065L289.444 180.759ZM304.399 177.065C310.121 177.065 314.932 178.235 318.96 180.438L322.799 173.42C317.409 170.471 311.234 169.065 304.399 169.065V177.065ZM318.983 180.451C322.907 182.564 326.014 185.793 328.295 190.32L335.439 186.72C332.488 180.863 328.27 176.365 322.776 173.407L318.983 180.451ZM328.3 190.331C330.547 194.755 331.791 200.602 331.791 208.08H339.791C339.791 199.78 338.419 192.588 335.433 186.709L328.3 190.331ZM331.791 208.08V267H339.791V208.08H331.791ZM335.791 263H321.544V271H335.791V263ZM325.544 267V209.045H317.544V267H325.544ZM325.544 209.045C325.544 201.074 323.462 194.309 318.797 189.296L312.941 194.746C315.842 197.864 317.544 202.448 317.544 209.045H325.544ZM318.81 189.311C314.131 184.234 307.789 181.864 300.294 181.864V189.864C305.998 189.864 310.04 191.599 312.927 194.732L318.81 189.311ZM300.294 181.864C295.148 181.864 290.407 182.985 286.17 185.318L290.028 192.326C292.955 190.714 296.343 189.864 300.294 189.864V181.864ZM286.153 185.327C281.906 187.692 278.583 191.14 276.192 195.547L283.223 199.362C284.937 196.203 287.208 193.896 290.045 192.316L286.153 185.327ZM276.192 195.547C273.751 200.046 272.629 205.325 272.629 211.219H280.629C280.629 206.326 281.559 202.43 283.223 199.362L276.192 195.547Z" fill="#FDFDFD"/>
<line x1="209" y1="262" x2="344.004" y2="262" stroke="black" stroke-width="20"/>
</g>
<defs>
<clipPath id="clip0_6_133">
<rect width="519" height="352" fill="white"/>
</clipPath>
</defs>
</svg>
